<?xml version="1.0" ?><svg id="Layer_1_1_" style="enable-background:new 0 0 64 64;" version="1.1" viewBox="0 0 64 64"
    xml:space="preserve" xmlns="http://www.w3.org/2000/svg" xmlns:xlink="http://www.w3.org/1999/xlink">
    <path stroke="#7a8cf8" fill="#7a8cf8"
        d="M32,39c3.86,0,7-3.14,7-7s-3.14-7-7-7s-7,3.14-7,7S28.14,39,32,39z M32,27c2.757,0,5,2.243,5,5s-2.243,5-5,5s-5-2.243-5-5  S29.243,27,32,27z" />
    <path stroke="#7a8cf8" fill="#7a8cf8"
        d="M32,35c1.654,0,3-1.346,3-3s-1.346-3-3-3s-3,1.346-3,3S30.346,35,32,35z M32,31c0.551,0,1,0.449,1,1s-0.449,1-1,1  s-1-0.449-1-1S31.449,31,32,31z" />
    <path stroke="#7a8cf8" fill="#7a8cf8"
        d="M59,1c-2.206,0-4,1.794-4,4s1.794,4,4,4s4-1.794,4-4S61.206,1,59,1z M59,7c-1.103,0-2-0.897-2-2s0.897-2,2-2s2,0.897,2,2  S60.103,7,59,7z" />
    <path stroke="#7a8cf8" fill="#7a8cf8"
        d="M5,63c2.206,0,4-1.794,4-4s-1.794-4-4-4s-4,1.794-4,4S2.794,63,5,63z M5,57c1.103,0,2,0.897,2,2s-0.897,2-2,2s-2-0.897-2-2  S3.897,57,5,57z" />
    <path stroke="#7a8cf8" fill="#7a8cf8"
        d="M59,55c-2.206,0-4,1.794-4,4s1.794,4,4,4s4-1.794,4-4S61.206,55,59,55z M59,61c-1.103,0-2-0.897-2-2s0.897-2,2-2  s2,0.897,2,2S60.103,61,59,61z" />
    <path stroke="#7a8cf8" fill="#7a8cf8"
        d="M5,9c2.206,0,4-1.794,4-4S7.206,1,5,1S1,2.794,1,5S2.794,9,5,9z M5,3c1.103,0,2,0.897,2,2S6.103,7,5,7S3,6.103,3,5  S3.897,3,5,3z" />
    <path stroke="#7a8cf8" fill="#7a8cf8"
        d="M29,9h2v14h2V9h2c0.36,0,0.693-0.194,0.87-0.507c0.178-0.313,0.173-0.698-0.013-1.007l-3-5  c-0.361-0.603-1.354-0.603-1.715,0l-3,5c-0.186,0.309-0.19,0.694-0.013,1.007C28.307,8.806,28.64,9,29,9z M32,4.944L33.234,7h-2.468  L32,4.944z" />
    <path stroke="#7a8cf8" fill="#7a8cf8"
        d="M31,41v14h-2c-0.36,0-0.693,0.194-0.87,0.507c-0.178,0.313-0.173,0.698,0.013,1.007l3,5C31.323,61.816,31.649,62,32,62  s0.677-0.184,0.857-0.485l3-5c0.186-0.309,0.19-0.694,0.013-1.007C35.693,55.194,35.36,55,35,55h-2V41H31z M32,59.056L30.766,57  h2.468L32,59.056z" />
    <path stroke="#7a8cf8" fill="#7a8cf8"
        d="M39.071,26.343l9.9-9.9l1.414,1.414c0.19,0.19,0.445,0.293,0.707,0.293c0.089,0,0.179-0.012,0.267-0.036  c0.347-0.096,0.616-0.372,0.703-0.721l1.414-5.657c0.085-0.341-0.015-0.701-0.263-0.95s-0.607-0.349-0.95-0.263l-5.657,1.414  c-0.349,0.087-0.625,0.356-0.721,0.703s0.002,0.719,0.257,0.974l1.414,1.414l-9.9,9.9L39.071,26.343z M51.131,12.869l-0.582,2.326  l-1.745-1.745L51.131,12.869z" />
    <path stroke="#7a8cf8" fill="#7a8cf8"
        d="M11.494,53.506c0.081,0,0.162-0.01,0.243-0.03l5.657-1.414c0.349-0.087,0.625-0.356,0.721-0.703s-0.002-0.719-0.257-0.974  l-1.414-1.414l9.9-9.9l-1.414-1.414l-9.9,9.9l-1.414-1.414c-0.255-0.255-0.626-0.354-0.974-0.257  c-0.347,0.096-0.616,0.372-0.703,0.721l-1.414,5.657c-0.085,0.341,0.015,0.701,0.263,0.95  C10.977,53.403,11.232,53.506,11.494,53.506z M13.45,48.805l1.745,1.745l-2.326,0.582L13.45,48.805z" />
    <path stroke="#7a8cf8" fill="#7a8cf8"
        d="M52.062,46.606c-0.087-0.349-0.356-0.625-0.703-0.721c-0.35-0.097-0.72,0.002-0.974,0.257l-1.414,1.414l-9.9-9.9  l-1.414,1.414l9.9,9.9l-1.414,1.414c-0.255,0.255-0.353,0.627-0.257,0.974s0.372,0.616,0.721,0.703l5.657,1.414  c0.081,0.02,0.162,0.03,0.243,0.03c0.262,0,0.517-0.103,0.707-0.293c0.249-0.249,0.348-0.609,0.263-0.95L52.062,46.606z   M48.805,50.55l1.745-1.745l0.582,2.326L48.805,50.55z" />
    <path stroke="#7a8cf8" fill="#7a8cf8"
        d="M11.938,17.394c0.087,0.349,0.356,0.625,0.703,0.721c0.088,0.024,0.178,0.036,0.267,0.036c0.262,0,0.517-0.103,0.707-0.293  l1.414-1.414l9.9,9.9l1.414-1.414l-9.9-9.9l1.414-1.414c0.255-0.255,0.353-0.627,0.257-0.974s-0.372-0.616-0.721-0.703l-5.657-1.414  c-0.341-0.084-0.701,0.015-0.95,0.263c-0.249,0.249-0.348,0.609-0.263,0.95L11.938,17.394z M15.195,13.45l-1.745,1.745l-0.582-2.326  L15.195,13.45z" />
    <path stroke="#7a8cf8" fill="#7a8cf8"
        d="M55.507,35.87C55.66,35.957,55.83,36,56,36c0.178,0,0.356-0.047,0.515-0.143l5-3C61.816,32.677,62,32.351,62,32  s-0.184-0.677-0.485-0.857l-5-3c-0.309-0.186-0.694-0.191-1.007-0.013C55.194,28.307,55,28.64,55,29v2H41v2h14v2  C55,35.36,55.194,35.693,55.507,35.87z M57,30.766L59.056,32L57,33.234V30.766z" />
    <path stroke="#7a8cf8" fill="#7a8cf8"
        d="M8.493,28.13c-0.313-0.178-0.698-0.173-1.007,0.013l-5,3C2.184,31.323,2,31.649,2,32s0.184,0.677,0.485,0.857l5,3  C7.644,35.953,7.822,36,8,36c0.17,0,0.34-0.043,0.493-0.13C8.806,35.693,9,35.36,9,35v-2h14v-2H9v-2  C9,28.64,8.806,28.307,8.493,28.13z M7,33.234L4.944,32L7,30.766V33.234z" />
    </svg>